<svg width="680" height="277" viewBox="0 0 680 277" fill="none" xmlns="http://www.w3.org/2000/svg">
<mask id="path-1-inside-1_257_3628" fill="white">
<path d="M227.156 45.3125C227.156 45.3125 238.704 35.1122 247.656 31.5C263.772 24.9972 292.156 31.5 292.156 31.5C292.156 31.5 310.568 37.5975 322.656 37C337.273 36.2775 358.156 25 358.156 25L386.656 0C386.656 0 387.781 3.61415 388.156 6C389.48 14.4032 388.338 19.8314 384.656 27.5C380.71 35.7186 375.562 38.5473 368.656 44.5C361.641 50.5475 349.156 58 349.156 58C349.156 58 364.302 61.7958 374.156 61.5C382.274 61.2563 386.939 60.5312 394.656 58C404.403 54.8029 417.656 45.3125 417.656 45.3125C417.656 45.3125 435.206 34.8675 447.656 31.5C462.577 27.4645 471.784 27.3898 487.156 29C501.004 30.4505 509.502 31.2059 521.656 38C533.352 44.538 546.656 61.5 546.656 61.5C546.656 61.5 514.638 53.2279 493.656 52.5C488.192 52.3104 485.015 51.4176 479.656 52.5C474.253 53.5913 470.897 54.4779 466.656 58C462.198 61.703 459.705 64.7999 458.656 70.5C457.404 77.3059 459.642 81.8629 463.656 87.5C468.338 94.0755 473.301 96.6394 481.156 98.5C493.241 101.362 499.569 92.3504 511.656 89.5C525.154 86.317 532.789 83.6548 546.656 83.5C558.862 83.3638 565.95 84.0417 577.656 87.5C590.637 91.3347 608.656 103 608.656 103L634.156 122C634.156 122 645.839 126.167 653.656 127C663.589 128.058 679.156 125 679.156 125C679.156 125 658.669 140.464 643.156 143C631.376 144.926 624.337 143.458 612.656 141C599.774 138.29 593.793 132.687 581.156 129C567.959 125.15 560.395 121.496 546.656 122C535.014 122.427 527.993 123.626 517.656 129C508.673 133.671 501.059 135.964 497.656 145.5C495.425 151.753 495.103 156.372 497.656 162.5C499.889 167.859 502.419 170.995 507.656 173.5C513.645 176.364 518.11 174.604 524.656 173.5C532.273 172.216 535.731 168.631 543.156 166.5C550.996 164.25 555.504 162.239 563.656 162.5C570.663 162.724 575.003 163.141 581.156 166.5C587.096 169.743 589.805 172.936 593.656 178.5C596.39 182.449 599.156 189.5 599.156 189.5C599.156 189.5 588.765 182.591 581.156 181C574.467 179.601 570.388 179.824 563.656 181C555.119 182.492 551.307 186.555 543.156 189.5C531.124 193.848 524.34 196.825 511.656 198.5C497.907 200.316 489.963 198.818 476.156 197.5C466.535 196.581 461.167 195.718 451.656 194C444.194 192.653 440.057 191.652 432.656 190C426.786 188.69 423.638 187.13 417.656 186.5C412.607 185.969 409.505 184.995 404.656 186.5C400.208 187.881 397.771 189.537 394.656 193C391.967 195.989 389.873 197.985 389.656 202C389.466 205.515 392.656 210.5 392.656 210.5C392.656 210.5 396.372 213.918 399.156 215.5C402.754 217.544 405.119 218.096 409.156 219C414.125 220.112 417.068 219.817 422.156 220C426.644 220.162 429.185 219.579 433.656 220C439.223 220.525 442.609 220.594 447.656 223C451.57 224.866 453.575 226.449 456.656 229.5C461.94 234.732 466.156 246 466.156 246C466.156 246 452.732 238.157 443.156 237C434.978 236.012 430.319 237.891 422.156 239C403.289 241.562 393.462 247.016 374.656 250C365.136 251.511 359.712 251.737 350.156 253C344.489 253.749 341.338 254.375 335.656 255C327.096 255.941 322.267 256.383 313.656 256.5C302.902 256.646 296.867 255.974 286.156 255C279.306 254.377 275.402 254.344 268.656 253C260.237 251.322 255.308 250.392 247.656 246.5C238.252 241.716 229.276 239.721 226.656 229.5C223.402 216.805 232.671 205.986 245.156 202C250.554 200.277 262.156 200.5 262.156 200.5L274.656 200L289.656 198.5C289.656 198.5 307.156 196 307.656 196C308.156 196 298.156 195 298.156 195C298.156 195 292.419 194.584 289.656 192.5C286.17 189.871 285.81 186.711 284.656 182.5C283.977 180.023 283.626 178.568 283.656 176C283.697 172.59 284.088 170.528 285.656 167.5C287.372 164.187 289.094 162.631 292.156 160.5C294.955 158.552 297.211 156.9 300.5 156C304.286 154.964 310.156 156 310.156 156C310.156 156 322.346 158.743 330.156 160.5C330.156 160.5 339.233 162.727 345.156 163.5C368.156 166.5 367.156 165 367.156 165C367.156 165 353.881 161.625 350.656 155C348.759 151.102 348.483 148.283 349.156 144C349.473 141.986 350.656 139 350.656 139C350.656 139 351.709 136.467 352.656 135C354.333 132.405 355.94 131.466 358.156 129.312C360.796 126.747 362.027 124.938 365.156 123C368.362 121.014 370.53 120.536 374.156 119.5C379.839 117.877 383.259 117.876 389.156 117.5C394.613 117.152 397.703 117.897 403.156 117.5C411.928 116.861 389.385 115.415 380.656 116.5C376.3 117.041 369.656 118.812 369.656 118.812C366.53 119.856 364.854 120.702 361.656 121.5C357.825 122.456 355.595 122.723 351.656 123C348.15 123.246 346.114 123.628 342.656 123C338.491 122.244 336.32 120.935 332.656 118.812C329.277 116.855 326.079 116.449 324.656 112.812C323.395 109.587 325.158 107.428 325.656 104C326.141 100.664 326.508 98.8077 327.156 95.5C327.863 91.8967 329.156 86.3125 329.156 86.3125C329.156 86.3125 316.712 95.3026 307.656 98.8125C299.796 101.859 295.078 104.188 286.656 103.812C279.556 103.496 275.514 101.991 269.156 98.8125C262.799 95.6339 254.656 87.8125 254.656 87.8125L265.656 83.5C265.656 83.5 275.268 81.7386 275.156 77.3125C275.027 72.1659 267.181 78.3791 262.156 79.5C257.411 80.5585 250.156 82.8125 250.156 82.8125L227.156 45.3125Z"/>
</mask>
<path d="M227.156 45.3125C227.156 45.3125 238.704 35.1122 247.656 31.5C263.772 24.9972 292.156 31.5 292.156 31.5C292.156 31.5 310.568 37.5975 322.656 37C337.273 36.2775 358.156 25 358.156 25L386.656 0C386.656 0 387.781 3.61415 388.156 6C389.48 14.4032 388.338 19.8314 384.656 27.5C380.71 35.7186 375.562 38.5473 368.656 44.5C361.641 50.5475 349.156 58 349.156 58C349.156 58 364.302 61.7958 374.156 61.5C382.274 61.2563 386.939 60.5312 394.656 58C404.403 54.8029 417.656 45.3125 417.656 45.3125C417.656 45.3125 435.206 34.8675 447.656 31.5C462.577 27.4645 471.784 27.3898 487.156 29C501.004 30.4505 509.502 31.2059 521.656 38C533.352 44.538 546.656 61.5 546.656 61.5C546.656 61.5 514.638 53.2279 493.656 52.5C488.192 52.3104 485.015 51.4176 479.656 52.5C474.253 53.5913 470.897 54.4779 466.656 58C462.198 61.703 459.705 64.7999 458.656 70.5C457.404 77.3059 459.642 81.8629 463.656 87.5C468.338 94.0755 473.301 96.6394 481.156 98.5C493.241 101.362 499.569 92.3504 511.656 89.5C525.154 86.317 532.789 83.6548 546.656 83.5C558.862 83.3638 565.95 84.0417 577.656 87.5C590.637 91.3347 608.656 103 608.656 103L634.156 122C634.156 122 645.839 126.167 653.656 127C663.589 128.058 679.156 125 679.156 125C679.156 125 658.669 140.464 643.156 143C631.376 144.926 624.337 143.458 612.656 141C599.774 138.29 593.793 132.687 581.156 129C567.959 125.15 560.395 121.496 546.656 122C535.014 122.427 527.993 123.626 517.656 129C508.673 133.671 501.059 135.964 497.656 145.5C495.425 151.753 495.103 156.372 497.656 162.5C499.889 167.859 502.419 170.995 507.656 173.5C513.645 176.364 518.11 174.604 524.656 173.5C532.273 172.216 535.731 168.631 543.156 166.5C550.996 164.25 555.504 162.239 563.656 162.5C570.663 162.724 575.003 163.141 581.156 166.5C587.096 169.743 589.805 172.936 593.656 178.5C596.39 182.449 599.156 189.5 599.156 189.5C599.156 189.5 588.765 182.591 581.156 181C574.467 179.601 570.388 179.824 563.656 181C555.119 182.492 551.307 186.555 543.156 189.5C531.124 193.848 524.34 196.825 511.656 198.5C497.907 200.316 489.963 198.818 476.156 197.5C466.535 196.581 461.167 195.718 451.656 194C444.194 192.653 440.057 191.652 432.656 190C426.786 188.69 423.638 187.13 417.656 186.5C412.607 185.969 409.505 184.995 404.656 186.5C400.208 187.881 397.771 189.537 394.656 193C391.967 195.989 389.873 197.985 389.656 202C389.466 205.515 392.656 210.5 392.656 210.5C392.656 210.5 396.372 213.918 399.156 215.5C402.754 217.544 405.119 218.096 409.156 219C414.125 220.112 417.068 219.817 422.156 220C426.644 220.162 429.185 219.579 433.656 220C439.223 220.525 442.609 220.594 447.656 223C451.57 224.866 453.575 226.449 456.656 229.5C461.94 234.732 466.156 246 466.156 246C466.156 246 452.732 238.157 443.156 237C434.978 236.012 430.319 237.891 422.156 239C403.289 241.562 393.462 247.016 374.656 250C365.136 251.511 359.712 251.737 350.156 253C344.489 253.749 341.338 254.375 335.656 255C327.096 255.941 322.267 256.383 313.656 256.5C302.902 256.646 296.867 255.974 286.156 255C279.306 254.377 275.402 254.344 268.656 253C260.237 251.322 255.308 250.392 247.656 246.5C238.252 241.716 229.276 239.721 226.656 229.5C223.402 216.805 232.671 205.986 245.156 202C250.554 200.277 262.156 200.5 262.156 200.5L274.656 200L289.656 198.5C289.656 198.5 307.156 196 307.656 196C308.156 196 298.156 195 298.156 195C298.156 195 292.419 194.584 289.656 192.5C286.17 189.871 285.81 186.711 284.656 182.5C283.977 180.023 283.626 178.568 283.656 176C283.697 172.59 284.088 170.528 285.656 167.5C287.372 164.187 289.094 162.631 292.156 160.5C294.955 158.552 297.211 156.9 300.5 156C304.286 154.964 310.156 156 310.156 156C310.156 156 322.346 158.743 330.156 160.5C330.156 160.5 339.233 162.727 345.156 163.5C368.156 166.5 367.156 165 367.156 165C367.156 165 353.881 161.625 350.656 155C348.759 151.102 348.483 148.283 349.156 144C349.473 141.986 350.656 139 350.656 139C350.656 139 351.709 136.467 352.656 135C354.333 132.405 355.94 131.466 358.156 129.312C360.796 126.747 362.027 124.938 365.156 123C368.362 121.014 370.53 120.536 374.156 119.5C379.839 117.877 383.259 117.876 389.156 117.5C394.613 117.152 397.703 117.897 403.156 117.5C411.928 116.861 389.385 115.415 380.656 116.5C376.3 117.041 369.656 118.812 369.656 118.812C366.53 119.856 364.854 120.702 361.656 121.5C357.825 122.456 355.595 122.723 351.656 123C348.15 123.246 346.114 123.628 342.656 123C338.491 122.244 336.32 120.935 332.656 118.812C329.277 116.855 326.079 116.449 324.656 112.812C323.395 109.587 325.158 107.428 325.656 104C326.141 100.664 326.508 98.8077 327.156 95.5C327.863 91.8967 329.156 86.3125 329.156 86.3125C329.156 86.3125 316.712 95.3026 307.656 98.8125C299.796 101.859 295.078 104.188 286.656 103.812C279.556 103.496 275.514 101.991 269.156 98.8125C262.799 95.6339 254.656 87.8125 254.656 87.8125L265.656 83.5C265.656 83.5 275.268 81.7386 275.156 77.3125C275.027 72.1659 267.181 78.3791 262.156 79.5C257.411 80.5585 250.156 82.8125 250.156 82.8125L227.156 45.3125Z" fill="url(#paint0_linear_257_3628)" stroke="#D9D9D9" stroke-width="6" mask="url(#path-1-inside-1_257_3628)"/>
<g filter="url(#filter0_d_257_3628)">
<path fill-rule="evenodd" clip-rule="evenodd" d="M168.655 239.255C224.486 222.311 256.013 163.273 239.072 107.39C222.131 51.5069 163.138 19.9412 107.307 36.8857C51.4765 53.8302 19.95 112.868 36.8908 168.751C53.8316 224.634 112.824 256.2 168.655 239.255Z" fill="white"/>
<path fill-rule="evenodd" clip-rule="evenodd" d="M149.945 33.0117L166.6 64.5561L206.486 57.6308C190.587 44.0872 170.895 35.4206 149.945 33.0117Z" fill="url(#paint1_linear_257_3628)"/>
<path fill-rule="evenodd" clip-rule="evenodd" d="M239.193 168.364C244.952 149.133 245.326 128.056 239.065 107.403C238.407 105.231 237.664 103.112 236.883 101.015L213.654 131.913L239.193 168.364Z" fill="url(#paint2_linear_257_3628)"/>
<path fill-rule="evenodd" clip-rule="evenodd" d="M203.096 221.354L159.778 207.405L133.577 243.72C145.137 244.207 156.966 242.812 168.661 239.263C181.538 235.355 193.1 229.187 203.096 221.354Z" fill="url(#paint3_linear_257_3628)"/>
<path opacity="0.3" fill-rule="evenodd" clip-rule="evenodd" d="M169.327 36.9312C184.782 49.7196 196.789 67.0277 203.047 87.6731C219.988 143.556 188.462 202.594 132.631 219.539C112.008 225.798 90.9576 225.42 71.751 219.657C98.1353 241.486 134.588 250.108 169.793 239.423C225.624 222.479 257.15 163.441 240.21 107.558C229.526 72.3169 202.117 46.7646 169.327 36.9312Z" fill="url(#paint4_linear_257_3628)"/>
<mask id="mask0_257_3628" style="mask-type:luminance" maskUnits="userSpaceOnUse" x="0" y="0" width="276" height="277">
<path d="M64.253 276.133L275.936 211.887L211.707 0.00733093L0.0234375 64.2539L64.253 276.133Z" fill="#D9D9D9"/>
</mask>
<g mask="url(#mask0_257_3628)">
<path fill-rule="evenodd" clip-rule="evenodd" d="M108.75 41.6466C55.6275 57.7695 25.5237 114.142 41.6422 167.314C57.7598 220.482 114.09 250.625 167.213 234.502C220.336 218.379 250.436 162.004 234.318 108.836C218.2 55.6645 161.873 25.5237 108.75 41.6466ZM170.097 244.014C111.734 261.728 49.8459 228.611 32.1385 170.198C14.4301 111.782 47.5042 49.8473 105.867 32.1341C164.229 14.4209 226.113 47.5356 243.822 105.952C261.529 164.364 228.459 226.301 170.097 244.014Z" fill="#2E2E30"/>
</g>
<path fill-rule="evenodd" clip-rule="evenodd" d="M149.371 175.651L101.194 158.926L102.192 107.9L150.984 93.092L180.144 134.965L149.371 175.651Z" fill="url(#paint5_linear_257_3628)"/>
<path fill-rule="evenodd" clip-rule="evenodd" d="M106.23 155.408L147.587 169.767L174.007 134.838L148.975 98.8933L107.083 111.607L106.23 155.408ZM150.812 180.405C149.834 180.702 148.759 180.696 147.743 180.346L99.5654 163.618C97.5351 162.912 96.1874 160.977 96.2292 158.821L97.2218 107.8C97.2677 105.646 98.6906 103.767 100.747 103.143L149.541 88.3338C151.601 87.7088 153.827 88.4804 155.058 90.2468L184.217 132.117C185.446 133.887 185.398 136.242 184.103 137.961L153.332 178.65C152.681 179.506 151.794 180.107 150.812 180.405Z" fill="#2E2E30"/>
<path fill-rule="evenodd" clip-rule="evenodd" d="M74.8564 53.2383C56.9956 66.5534 43.9558 85.1365 37.3068 106.018L77.3472 89.9257L74.8564 53.2383Z" fill="url(#paint6_linear_257_3628)"/>
<path fill-rule="evenodd" clip-rule="evenodd" d="M70.5549 63.2094C60.1511 72.641 51.7228 84.2984 45.9821 97.1761L72.1471 86.6625L70.5549 63.2094ZM38.7484 110.777C37.0662 111.288 35.2239 110.87 33.9267 109.661C32.516 108.351 31.9903 106.343 32.5731 104.511C39.6658 82.2514 53.2624 63.1427 71.8875 49.2561C73.3423 48.1671 75.28 47.9634 76.9329 48.7256C78.5825 49.4887 79.6869 51.0891 79.8115 52.9037L82.3024 89.5913C82.4452 91.7398 81.1929 93.7368 79.1981 94.5396L39.1576 110.632C39.0221 110.687 38.8846 110.736 38.7484 110.777Z" fill="#2E2E30"/>
<path fill-rule="evenodd" clip-rule="evenodd" d="M169.305 59.0451L194.435 54.6799C183.687 47.3776 171.688 42.2454 159.002 39.5303L169.305 59.0451ZM207.932 62.3908C207.742 62.4484 207.542 62.4954 207.338 62.5296L167.451 69.455C165.332 69.8246 163.218 68.7836 162.212 66.8798L145.557 35.3353C144.696 33.7028 144.81 31.7291 145.847 30.2094C146.891 28.6877 148.682 27.8636 150.514 28.0762C172.4 30.5925 192.868 39.5047 209.709 53.8497C211.173 55.0983 211.786 57.0835 211.281 58.9438C210.826 60.6053 209.554 61.8985 207.932 62.3908Z" fill="#2E2E30"/>
<path fill-rule="evenodd" clip-rule="evenodd" d="M143.324 238.707C160.58 237.798 177.603 232.333 192.136 223.048L161.694 213.241L143.324 238.707ZM170.108 244.019C158.175 247.641 145.813 249.211 133.374 248.686C131.548 248.607 129.912 247.535 129.115 245.886C128.315 244.242 128.485 242.293 129.554 240.809L155.752 204.494C157.01 202.745 159.249 202.017 161.299 202.672L204.621 216.624C206.37 217.191 207.664 218.675 207.987 220.484C208.311 222.294 207.608 224.138 206.162 225.269C195.373 233.723 183.244 240.032 170.108 244.019Z" fill="#2E2E30"/>
<path fill-rule="evenodd" clip-rule="evenodd" d="M71.6387 175L35.1683 162.221C35.68 164.399 36.2421 166.573 36.9006 168.745C43.1615 189.398 55.1749 206.715 70.6417 219.505L71.6387 175Z" fill="url(#paint7_linear_257_3628)"/>
<mask id="mask1_257_3628" style="mask-type:luminance" maskUnits="userSpaceOnUse" x="28" y="146" width="63" height="85">
<path d="M28.752 158.969L50.5265 230.796L90.1052 218.784L68.3306 146.957L28.752 158.969V158.969Z" fill="#2E2E30"/>
</mask>
<g mask="url(#mask1_257_3628)">
<path fill-rule="evenodd" clip-rule="evenodd" d="M42.5382 170.061C47.3789 184.534 55.3571 197.591 65.9274 208.414L66.599 178.493L42.5382 170.061ZM72.0884 224.252C70.5107 224.731 68.777 224.398 67.4833 223.326C50.7033 209.457 38.4864 191.08 32.1506 170.18C31.4624 167.91 30.88 165.635 30.3426 163.36C29.9245 161.593 30.5038 159.738 31.8512 158.522C33.1891 157.309 35.0984 156.92 36.8111 157.526L73.2812 170.305C75.3158 171.014 76.655 172.955 76.605 175.106L75.6109 219.61C75.5687 221.513 74.4404 223.223 72.7127 224.018C72.5081 224.107 72.2975 224.189 72.0884 224.252Z" fill="#2E2E30"/>
</g>
<path fill-rule="evenodd" clip-rule="evenodd" d="M102.191 107.888L78.7812 91Z" fill="white"/>
<path fill-rule="evenodd" clip-rule="evenodd" d="M103.634 112.649C102.202 113.084 100.594 112.869 99.2876 111.925L75.8814 95.0365C73.6544 93.4305 73.1522 90.3246 74.7542 88.1001C76.3647 85.8697 79.4614 85.3696 81.6852 86.9765L105.09 103.862C107.317 105.468 107.82 108.574 106.218 110.798C105.556 111.72 104.638 112.344 103.634 112.649Z" fill="#2E2E30"/>
<path fill-rule="evenodd" clip-rule="evenodd" d="M150.978 93.0852L166.607 64.5573Z" fill="white"/>
<path fill-rule="evenodd" clip-rule="evenodd" d="M152.419 97.8448C151.183 98.2198 149.81 98.1172 148.589 97.4454C146.187 96.1281 145.302 93.1072 146.623 90.698L162.253 62.17C163.564 59.7637 166.587 58.8811 168.993 60.2006C171.396 61.521 172.278 64.543 170.956 66.949L155.33 95.4791C154.683 96.6626 153.619 97.4804 152.419 97.8448Z" fill="#2E2E30"/>
<path fill-rule="evenodd" clip-rule="evenodd" d="M101.201 158.922L71.6373 175.001Z" fill="white"/>
<path fill-rule="evenodd" clip-rule="evenodd" d="M73.0692 179.759C70.8644 180.428 68.4156 179.482 67.2716 177.374C65.9589 174.961 66.8534 171.944 69.2619 170.635L98.8295 154.554C101.213 153.242 104.254 154.133 105.563 156.547C106.875 158.957 105.981 161.974 103.572 163.283L74.0055 179.368C73.7026 179.532 73.3891 179.662 73.0692 179.759Z" fill="#2E2E30"/>
<path fill-rule="evenodd" clip-rule="evenodd" d="M219.788 132.014L236.959 156.52C239.74 141.649 239.124 126.357 235.113 111.632L219.788 132.014ZM240.634 173.117C240.421 173.181 240.204 173.229 239.984 173.269C238.104 173.569 236.219 172.773 235.127 171.214L209.588 134.764C208.349 133.003 208.388 130.644 209.686 128.923L232.912 98.0268C234.004 96.5735 235.806 95.8398 237.589 96.0951C239.384 96.357 240.895 97.5745 241.531 99.2753C242.443 101.71 243.193 103.899 243.817 105.957C250.151 126.854 250.197 148.925 243.949 169.787C243.468 171.397 242.211 172.638 240.634 173.117Z" fill="#2E2E30"/>
<path fill-rule="evenodd" clip-rule="evenodd" d="M180.141 134.969L213.651 131.907Z" fill="white"/>
<path fill-rule="evenodd" clip-rule="evenodd" d="M215.104 136.656C214.784 136.753 214.451 136.819 214.108 136.851L180.596 139.91C177.866 140.16 175.447 138.149 175.2 135.416C174.948 132.681 176.98 130.253 179.692 130.015L213.203 126.953C215.933 126.703 218.352 128.714 218.6 131.45C218.819 133.839 217.308 135.987 215.104 136.656Z" fill="#2E2E30"/>
<path fill-rule="evenodd" clip-rule="evenodd" d="M160.51 212.372C157.887 213.168 155.111 211.683 154.315 209.058L144.626 177.096C143.83 174.471 145.313 171.694 147.936 170.898C150.56 170.101 153.335 171.586 154.131 174.212L163.821 206.173C164.617 208.799 163.133 211.576 160.51 212.372Z" fill="#2E2E30"/>
</g>
<mask id="path-28-outside-2_257_3628" maskUnits="userSpaceOnUse" x="259.41" y="89.3906" width="330" height="86" fill="black">
<rect fill="white" x="259.41" y="89.3906" width="330" height="86"/>
<path d="M263.582 165.234V98.3643C263.582 96.9678 264.083 95.7861 265.086 94.8193C266.089 93.8525 267.288 93.3691 268.685 93.3691H330.613C332.01 93.3691 333.191 93.8704 334.158 94.873C335.161 95.8757 335.662 97.0752 335.662 98.4717V103.521C335.662 104.917 335.161 106.117 334.158 107.119C333.191 108.086 332.01 108.569 330.613 108.569H283.831V127.476H321.912C323.309 127.476 324.49 127.977 325.457 128.979C326.46 129.982 326.961 131.164 326.961 132.524V137.627C326.961 139.023 326.46 140.223 325.457 141.226C324.49 142.192 323.309 142.676 321.912 142.676H283.831V165.234C283.831 166.702 283.33 167.938 282.327 168.94C281.36 169.907 280.179 170.391 278.782 170.391H268.685C267.288 170.391 266.089 169.907 265.086 168.94C264.083 167.938 263.582 166.702 263.582 165.234ZM342.361 145.63V114.854C342.361 113.887 342.665 113.099 343.274 112.49C343.919 111.846 344.706 111.523 345.637 111.523H357.669C358.6 111.523 359.369 111.846 359.978 112.49C360.623 113.099 360.945 113.887 360.945 114.854V145.63C360.945 154.224 364.347 158.521 371.15 158.521C375.626 158.521 380.442 155.942 385.598 150.786V114.854C385.598 113.887 385.903 113.099 386.511 112.49C387.156 111.846 387.944 111.523 388.875 111.523H400.852C401.819 111.523 402.607 111.846 403.215 112.49C403.86 113.099 404.182 113.887 404.182 114.854V167.114C404.182 168.045 403.86 168.833 403.215 169.478C402.607 170.086 401.819 170.391 400.852 170.391H388.875C387.944 170.391 387.156 170.086 386.511 169.478C385.903 168.833 385.598 168.045 385.598 167.114V163.677C379.439 168.869 372.869 171.465 365.886 171.465C358.94 171.465 353.282 169.352 348.914 165.127C344.545 160.866 342.361 154.367 342.361 145.63ZM419.099 96.6992C419.099 95.7324 419.403 94.9447 420.012 94.3359C420.657 93.6914 421.444 93.3691 422.375 93.3691H434.407C435.337 93.3691 436.107 93.6914 436.716 94.3359C437.361 94.9447 437.683 95.7324 437.683 96.6992V113.188C443.484 111.362 448.658 110.449 453.205 110.449C462.014 110.449 469.014 113.081 474.206 118.345C479.398 123.573 481.994 131.128 481.994 141.011C481.994 161.313 470.626 171.465 447.888 171.465C442.696 171.465 437.307 170.892 431.721 169.746C426.171 168.564 421.963 167.132 419.099 165.449V96.6992ZM437.683 125.596V157.285C440.762 158.109 444.683 158.521 449.446 158.521C454.208 158.521 457.628 157.142 459.704 154.385C461.817 151.628 462.873 147.17 462.873 141.011C462.873 134.852 461.835 130.394 459.758 127.637C457.717 124.844 454.244 123.447 449.338 123.447C446.187 123.447 442.302 124.163 437.683 125.596ZM498.63 163.73C493.044 158.574 490.251 150.983 490.251 140.957C490.251 130.895 493.044 123.304 498.63 118.184C504.216 113.027 512.237 110.449 522.692 110.449C533.184 110.449 541.223 113.027 546.808 118.184C552.394 123.304 555.187 130.895 555.187 140.957C555.187 150.983 552.394 158.574 546.808 163.73C541.223 168.887 533.184 171.465 522.692 171.465C512.237 171.465 504.216 168.887 498.63 163.73ZM512.219 126.992C509.999 129.893 508.889 134.53 508.889 140.903C508.889 147.277 509.999 151.932 512.219 154.868C514.439 157.804 517.93 159.272 522.692 159.272C527.49 159.272 531 157.804 533.22 154.868C535.475 151.932 536.603 147.277 536.603 140.903C536.603 134.53 535.475 129.893 533.22 126.992C531 124.092 527.49 122.642 522.692 122.642C517.93 122.642 514.439 124.092 512.219 126.992ZM566.774 167.114V96.6992C566.774 95.7324 567.078 94.9447 567.687 94.3359C568.332 93.6914 569.119 93.3691 570.05 93.3691H582.082C583.013 93.3691 583.782 93.6914 584.391 94.3359C585.036 94.9447 585.358 95.7324 585.358 96.6992V167.114C585.358 168.045 585.036 168.833 584.391 169.478C583.782 170.086 583.013 170.391 582.082 170.391H570.05C569.119 170.391 568.332 170.086 567.687 169.478C567.078 168.833 566.774 168.045 566.774 167.114Z"/>
</mask>
<path d="M263.582 165.234V98.3643C263.582 96.9678 264.083 95.7861 265.086 94.8193C266.089 93.8525 267.288 93.3691 268.685 93.3691H330.613C332.01 93.3691 333.191 93.8704 334.158 94.873C335.161 95.8757 335.662 97.0752 335.662 98.4717V103.521C335.662 104.917 335.161 106.117 334.158 107.119C333.191 108.086 332.01 108.569 330.613 108.569H283.831V127.476H321.912C323.309 127.476 324.49 127.977 325.457 128.979C326.46 129.982 326.961 131.164 326.961 132.524V137.627C326.961 139.023 326.46 140.223 325.457 141.226C324.49 142.192 323.309 142.676 321.912 142.676H283.831V165.234C283.831 166.702 283.33 167.938 282.327 168.94C281.36 169.907 280.179 170.391 278.782 170.391H268.685C267.288 170.391 266.089 169.907 265.086 168.94C264.083 167.938 263.582 166.702 263.582 165.234ZM342.361 145.63V114.854C342.361 113.887 342.665 113.099 343.274 112.49C343.919 111.846 344.706 111.523 345.637 111.523H357.669C358.6 111.523 359.369 111.846 359.978 112.49C360.623 113.099 360.945 113.887 360.945 114.854V145.63C360.945 154.224 364.347 158.521 371.15 158.521C375.626 158.521 380.442 155.942 385.598 150.786V114.854C385.598 113.887 385.903 113.099 386.511 112.49C387.156 111.846 387.944 111.523 388.875 111.523H400.852C401.819 111.523 402.607 111.846 403.215 112.49C403.86 113.099 404.182 113.887 404.182 114.854V167.114C404.182 168.045 403.86 168.833 403.215 169.478C402.607 170.086 401.819 170.391 400.852 170.391H388.875C387.944 170.391 387.156 170.086 386.511 169.478C385.903 168.833 385.598 168.045 385.598 167.114V163.677C379.439 168.869 372.869 171.465 365.886 171.465C358.94 171.465 353.282 169.352 348.914 165.127C344.545 160.866 342.361 154.367 342.361 145.63ZM419.099 96.6992C419.099 95.7324 419.403 94.9447 420.012 94.3359C420.657 93.6914 421.444 93.3691 422.375 93.3691H434.407C435.337 93.3691 436.107 93.6914 436.716 94.3359C437.361 94.9447 437.683 95.7324 437.683 96.6992V113.188C443.484 111.362 448.658 110.449 453.205 110.449C462.014 110.449 469.014 113.081 474.206 118.345C479.398 123.573 481.994 131.128 481.994 141.011C481.994 161.313 470.626 171.465 447.888 171.465C442.696 171.465 437.307 170.892 431.721 169.746C426.171 168.564 421.963 167.132 419.099 165.449V96.6992ZM437.683 125.596V157.285C440.762 158.109 444.683 158.521 449.446 158.521C454.208 158.521 457.628 157.142 459.704 154.385C461.817 151.628 462.873 147.17 462.873 141.011C462.873 134.852 461.835 130.394 459.758 127.637C457.717 124.844 454.244 123.447 449.338 123.447C446.187 123.447 442.302 124.163 437.683 125.596ZM498.63 163.73C493.044 158.574 490.251 150.983 490.251 140.957C490.251 130.895 493.044 123.304 498.63 118.184C504.216 113.027 512.237 110.449 522.692 110.449C533.184 110.449 541.223 113.027 546.808 118.184C552.394 123.304 555.187 130.895 555.187 140.957C555.187 150.983 552.394 158.574 546.808 163.73C541.223 168.887 533.184 171.465 522.692 171.465C512.237 171.465 504.216 168.887 498.63 163.73ZM512.219 126.992C509.999 129.893 508.889 134.53 508.889 140.903C508.889 147.277 509.999 151.932 512.219 154.868C514.439 157.804 517.93 159.272 522.692 159.272C527.49 159.272 531 157.804 533.22 154.868C535.475 151.932 536.603 147.277 536.603 140.903C536.603 134.53 535.475 129.893 533.22 126.992C531 124.092 527.49 122.642 522.692 122.642C517.93 122.642 514.439 124.092 512.219 126.992ZM566.774 167.114V96.6992C566.774 95.7324 567.078 94.9447 567.687 94.3359C568.332 93.6914 569.119 93.3691 570.05 93.3691H582.082C583.013 93.3691 583.782 93.6914 584.391 94.3359C585.036 94.9447 585.358 95.7324 585.358 96.6992V167.114C585.358 168.045 585.036 168.833 584.391 169.478C583.782 170.086 583.013 170.391 582.082 170.391H570.05C569.119 170.391 568.332 170.086 567.687 169.478C567.078 168.833 566.774 168.045 566.774 167.114Z" fill="white"/>
<path d="M334.158 94.873L331.495 97.4413L331.518 97.4656L331.542 97.4893L334.158 94.873ZM283.831 108.569V104.869H280.131V108.569H283.831ZM283.831 127.476H280.131V131.176H283.831V127.476ZM325.457 128.979L322.794 131.548L322.817 131.572L322.841 131.596L325.457 128.979ZM325.457 141.226L322.841 138.609L325.457 141.226ZM283.831 142.676V138.976H280.131V142.676H283.831ZM282.327 168.94L279.711 166.324L282.327 168.94ZM265.086 168.94L262.47 171.557L262.493 171.581L262.518 171.604L265.086 168.94ZM263.582 165.234H267.282V98.3643H263.582H259.882V165.234H263.582ZM263.582 98.3643H267.282C267.282 97.9694 267.377 97.7501 267.654 97.4828L265.086 94.8193L262.518 92.1559C260.79 93.8221 259.882 95.9661 259.882 98.3643H263.582ZM265.086 94.8193L267.654 97.4828C267.965 97.1829 268.243 97.0691 268.685 97.0691V93.3691V89.6691C266.333 89.6691 264.212 90.5222 262.518 92.1559L265.086 94.8193ZM268.685 93.3691V97.0691H330.613V93.3691V89.6691H268.685V93.3691ZM330.613 93.3691V97.0691C331.008 97.0691 331.227 97.1641 331.495 97.4413L334.158 94.873L336.822 92.3047C335.155 90.5768 333.011 89.6691 330.613 89.6691V93.3691ZM334.158 94.873L331.542 97.4893C331.863 97.81 331.962 98.0733 331.962 98.4717H335.662H339.362C339.362 96.0771 338.459 93.9413 336.775 92.2568L334.158 94.873ZM335.662 98.4717H331.962V103.521H335.662H339.362V98.4717H335.662ZM335.662 103.521H331.962C331.962 103.919 331.863 104.182 331.542 104.503L334.158 107.119L336.775 109.735C338.459 108.051 339.362 105.915 339.362 103.521H335.662ZM334.158 107.119L331.542 104.503C331.286 104.759 331.052 104.869 330.613 104.869V108.569V112.269C332.968 112.269 335.097 111.413 336.775 109.735L334.158 107.119ZM330.613 108.569V104.869H283.831V108.569V112.269H330.613V108.569ZM283.831 108.569H280.131V127.476H283.831H287.531V108.569H283.831ZM283.831 127.476V131.176H321.912V127.476V123.776H283.831V127.476ZM321.912 127.476V131.176C322.307 131.176 322.526 131.271 322.794 131.548L325.457 128.979L328.121 126.411C326.454 124.683 324.31 123.776 321.912 123.776V127.476ZM325.457 128.979L322.841 131.596C323.182 131.937 323.261 132.19 323.261 132.524H326.961H330.661C330.661 130.137 329.737 128.027 328.073 126.363L325.457 128.979ZM326.961 132.524H323.261V137.627H326.961H330.661V132.524H326.961ZM326.961 137.627H323.261C323.261 138.025 323.161 138.289 322.841 138.609L325.457 141.226L328.073 143.842C329.758 142.157 330.661 140.022 330.661 137.627H326.961ZM325.457 141.226L322.841 138.609C322.584 138.866 322.351 138.976 321.912 138.976V142.676V146.376C324.266 146.376 326.396 145.519 328.073 143.842L325.457 141.226ZM321.912 142.676V138.976H283.831V142.676V146.376H321.912V142.676ZM283.831 142.676H280.131V165.234H283.831H287.531V142.676H283.831ZM283.831 165.234H280.131C280.131 165.76 279.993 166.042 279.711 166.324L282.327 168.94L284.944 171.557C286.667 169.833 287.531 167.645 287.531 165.234H283.831ZM282.327 168.94L279.711 166.324C279.454 166.581 279.221 166.691 278.782 166.691V170.391V174.091C281.137 174.091 283.266 173.234 284.944 171.557L282.327 168.94ZM278.782 170.391V166.691H268.685V170.391V174.091H278.782V170.391ZM268.685 170.391V166.691C268.243 166.691 267.965 166.577 267.654 166.277L265.086 168.94L262.518 171.604C264.212 173.238 266.333 174.091 268.685 174.091V170.391ZM265.086 168.94L267.702 166.324C267.421 166.042 267.282 165.76 267.282 165.234H263.582H259.882C259.882 167.645 260.746 169.833 262.47 171.557L265.086 168.94ZM343.274 112.49L345.89 115.107L343.274 112.49ZM359.978 112.49L357.288 115.031L357.361 115.108L357.438 115.18L359.978 112.49ZM385.598 150.786L388.215 153.402L389.298 152.319V150.786H385.598ZM386.511 112.49L389.128 115.107L386.511 112.49ZM403.215 112.49L400.526 115.031L400.598 115.108L400.675 115.18L403.215 112.49ZM403.215 169.478L400.599 166.861L403.215 169.478ZM386.511 169.478L383.821 172.018L383.894 172.095L383.971 172.167L386.511 169.478ZM385.598 163.677H389.298V155.718L383.213 160.848L385.598 163.677ZM348.914 165.127L346.33 167.776L346.336 167.781L346.341 167.786L348.914 165.127ZM342.361 145.63H346.061V114.854H342.361H338.661V145.63H342.361ZM342.361 114.854H346.061C346.061 114.761 346.075 114.783 346.041 114.871C346.024 114.913 346.001 114.96 345.971 115.005C345.942 115.05 345.913 115.084 345.89 115.107L343.274 112.49L340.658 109.874C339.267 111.265 338.661 113.037 338.661 114.854H342.361ZM343.274 112.49L345.89 115.107C345.893 115.104 345.882 115.115 345.854 115.134C345.826 115.153 345.791 115.173 345.749 115.19C345.658 115.227 345.607 115.223 345.637 115.223V111.523V107.823C343.749 107.823 342.013 108.519 340.658 109.874L343.274 112.49ZM345.637 111.523V115.223H357.669V111.523V107.823H345.637V111.523ZM357.669 111.523V115.223C357.7 115.223 357.633 115.227 357.516 115.178C357.394 115.127 357.316 115.06 357.288 115.031L359.978 112.49L362.668 109.95C361.322 108.524 359.56 107.823 357.669 107.823V111.523ZM359.978 112.49L357.438 115.18C357.42 115.163 357.391 115.132 357.359 115.086C357.327 115.04 357.3 114.989 357.279 114.939C357.235 114.831 357.245 114.786 357.245 114.854H360.945H364.645C364.645 112.971 363.975 111.175 362.519 109.8L359.978 112.49ZM360.945 114.854H357.245V145.63H360.945H364.645V114.854H360.945ZM360.945 145.63H357.245C357.245 150.315 358.156 154.513 360.595 157.594C363.165 160.841 366.918 162.221 371.15 162.221V158.521V154.821C368.578 154.821 367.229 154.052 366.397 153.001C365.435 151.786 364.645 149.538 364.645 145.63H360.945ZM371.15 158.521V162.221C377.071 162.221 382.781 158.836 388.215 153.402L385.598 150.786L382.982 148.17C378.103 153.049 374.181 154.821 371.15 154.821V158.521ZM385.598 150.786H389.298V114.854H385.598H381.898V150.786H385.598ZM385.598 114.854H389.298C389.298 114.761 389.312 114.783 389.278 114.871C389.262 114.913 389.238 114.96 389.209 115.005C389.179 115.05 389.15 115.084 389.128 115.107L386.511 112.49L383.895 109.874C382.504 111.265 381.898 113.037 381.898 114.854H385.598ZM386.511 112.49L389.128 115.107C389.131 115.104 389.119 115.115 389.092 115.134C389.064 115.153 389.028 115.173 388.987 115.19C388.896 115.227 388.844 115.223 388.875 115.223V111.523V107.823C386.986 107.823 385.25 108.519 383.895 109.874L386.511 112.49ZM388.875 111.523V115.223H400.852V111.523V107.823H388.875V111.523ZM400.852 111.523V115.223C400.92 115.223 400.874 115.233 400.767 115.19C400.716 115.169 400.666 115.142 400.619 115.109C400.573 115.077 400.542 115.048 400.526 115.031L403.215 112.49L405.905 109.95C404.53 108.494 402.735 107.823 400.852 107.823V111.523ZM403.215 112.49L400.675 115.18C400.657 115.163 400.628 115.132 400.596 115.086C400.564 115.04 400.537 114.989 400.516 114.939C400.472 114.831 400.482 114.786 400.482 114.854H404.182H407.882C407.882 112.971 407.212 111.175 405.756 109.8L403.215 112.49ZM404.182 114.854H400.482V167.114H404.182H407.882V114.854H404.182ZM404.182 167.114H400.482C400.482 167.145 400.479 167.093 400.516 167.002C400.533 166.961 400.553 166.925 400.572 166.897C400.59 166.87 400.602 166.858 400.599 166.861L403.215 169.478L405.832 172.094C407.187 170.739 407.882 169.003 407.882 167.114H404.182ZM403.215 169.478L400.599 166.861C400.621 166.839 400.655 166.81 400.701 166.78C400.746 166.75 400.792 166.727 400.835 166.711C400.923 166.677 400.945 166.691 400.852 166.691V170.391V174.091C402.668 174.091 404.441 173.484 405.832 172.094L403.215 169.478ZM400.852 170.391V166.691H388.875V170.391V174.091H400.852V170.391ZM388.875 170.391V166.691C388.844 166.691 388.837 166.688 388.848 166.69C388.861 166.692 388.886 166.698 388.919 166.711C388.952 166.724 388.984 166.74 389.011 166.757C389.037 166.774 389.051 166.786 389.052 166.788L386.511 169.478L383.971 172.167C385.339 173.46 387.051 174.091 388.875 174.091V170.391ZM386.511 169.478L389.201 166.937C389.203 166.938 389.215 166.952 389.232 166.978C389.249 167.005 389.265 167.037 389.278 167.07C389.291 167.103 389.296 167.128 389.299 167.14C389.301 167.152 389.298 167.145 389.298 167.114H385.598H381.898C381.898 168.938 382.529 170.65 383.821 172.018L386.511 169.478ZM385.598 167.114H389.298V163.677H385.598H381.898V167.114H385.598ZM385.598 163.677L383.213 160.848C377.614 165.569 371.864 167.765 365.886 167.765V171.465V175.165C373.874 175.165 381.265 172.169 387.983 166.506L385.598 163.677ZM365.886 171.465V167.765C359.751 167.765 355.065 165.929 351.486 162.467L348.914 165.127L346.341 167.786C351.5 172.776 358.128 175.165 365.886 175.165V171.465ZM348.914 165.127L351.497 162.478C348.103 159.168 346.061 153.805 346.061 145.63H342.361H338.661C338.661 154.929 340.987 162.564 346.33 167.776L348.914 165.127ZM420.012 94.3359L422.628 96.9522L420.012 94.3359ZM436.716 94.3359L434.026 96.8764L434.099 96.9533L434.176 97.0259L436.716 94.3359ZM437.683 113.188H433.983V118.232L438.794 116.718L437.683 113.188ZM474.206 118.345L471.572 120.943L471.581 120.952L474.206 118.345ZM431.721 169.746L430.95 173.365L430.964 173.368L430.977 173.371L431.721 169.746ZM419.099 165.449H415.399V167.567L417.225 168.639L419.099 165.449ZM437.683 125.596L436.587 122.062L433.983 122.869V125.596H437.683ZM437.683 157.285H433.983V160.126L436.727 160.86L437.683 157.285ZM459.704 154.385L456.767 152.134L456.758 152.146L456.749 152.159L459.704 154.385ZM459.758 127.637L456.771 129.82L456.787 129.841L456.803 129.863L459.758 127.637ZM419.099 96.6992H422.799C422.799 96.6065 422.813 96.6284 422.779 96.7168C422.762 96.7591 422.739 96.8054 422.709 96.8509C422.68 96.8962 422.65 96.9301 422.628 96.9522L420.012 94.3359L417.396 91.7196C416.005 93.1102 415.399 94.883 415.399 96.6992H419.099ZM420.012 94.3359L422.628 96.9522C422.631 96.9492 422.62 96.9612 422.592 96.9797C422.564 96.9986 422.528 97.0185 422.487 97.0354C422.396 97.0725 422.345 97.0691 422.375 97.0691V93.3691V89.6691C420.486 89.6691 418.751 90.3648 417.396 91.7196L420.012 94.3359ZM422.375 93.3691V97.0691H434.407V93.3691V89.6691H422.375V93.3691ZM434.407 93.3691V97.0691C434.438 97.0691 434.371 97.0729 434.253 97.0239C434.132 96.9732 434.054 96.9061 434.026 96.8764L436.716 94.3359L439.406 91.7954C438.06 90.3702 436.298 89.6691 434.407 89.6691V93.3691ZM436.716 94.3359L434.176 97.0259C434.158 97.0091 434.129 96.9782 434.097 96.9321C434.065 96.8857 434.037 96.835 434.017 96.7842C433.973 96.6771 433.983 96.6314 433.983 96.6992H437.683H441.383C441.383 94.8169 440.713 93.021 439.257 91.646L436.716 94.3359ZM437.683 96.6992H433.983V113.188H437.683H441.383V96.6992H437.683ZM437.683 113.188L438.794 116.718C444.348 114.969 449.137 114.149 453.205 114.149V110.449V106.749C448.178 106.749 442.619 107.756 436.572 109.659L437.683 113.188ZM453.205 110.449V114.149C461.228 114.149 467.206 116.517 471.572 120.943L474.206 118.345L476.84 115.746C470.822 109.645 462.8 106.749 453.205 106.749V110.449ZM474.206 118.345L471.581 120.952C475.876 125.276 478.294 131.761 478.294 141.011H481.994H485.694C485.694 130.494 482.921 121.869 476.832 115.737L474.206 118.345ZM481.994 141.011H478.294C478.294 150.477 475.663 156.93 471.003 161.091C466.264 165.324 458.783 167.765 447.888 167.765V171.465V175.165C459.73 175.165 469.303 172.53 475.932 166.611C482.641 160.621 485.694 151.848 485.694 141.011H481.994ZM447.888 171.465V167.765C442.969 167.765 437.829 167.222 432.464 166.122L431.721 169.746L430.977 173.371C436.784 174.562 442.423 175.165 447.888 175.165V171.465ZM431.721 169.746L432.491 166.127C427.096 164.978 423.337 163.648 420.973 162.259L419.099 165.449L417.225 168.639C420.59 170.617 425.246 172.15 430.95 173.365L431.721 169.746ZM419.099 165.449H422.799V96.6992H419.099H415.399V165.449H419.099ZM437.683 125.596H433.983V157.285H437.683H441.383V125.596H437.683ZM437.683 157.285L436.727 160.86C440.231 161.797 444.503 162.221 449.446 162.221V158.521V154.821C444.864 154.821 441.294 154.421 438.639 153.711L437.683 157.285ZM449.446 158.521V162.221C454.898 162.221 459.642 160.618 462.66 156.611L459.704 154.385L456.749 152.159C455.613 153.666 453.518 154.821 449.446 154.821V158.521ZM459.704 154.385L462.641 156.635C465.506 152.897 466.573 147.425 466.573 141.011H462.873H459.173C459.173 146.914 458.128 150.358 456.767 152.134L459.704 154.385ZM462.873 141.011H466.573C466.573 134.605 465.526 129.144 462.713 125.411L459.758 127.637L456.803 129.863C458.144 131.643 459.173 135.099 459.173 141.011H462.873ZM459.758 127.637L462.745 125.454C459.747 121.35 454.899 119.747 449.338 119.747V123.447V127.147C453.589 127.147 455.687 128.337 456.771 129.82L459.758 127.637ZM449.338 123.447V119.747C445.673 119.747 441.393 120.572 436.587 122.062L437.683 125.596L438.779 129.13C443.211 127.755 446.701 127.147 449.338 127.147V123.447ZM498.63 118.184L501.13 120.911L501.139 120.902L498.63 118.184ZM546.808 118.184L544.299 120.902L544.308 120.911L546.808 118.184ZM512.219 154.868L509.267 157.1L512.219 154.868ZM533.22 154.868L530.286 152.614L530.277 152.625L530.268 152.637L533.22 154.868ZM533.22 126.992L530.282 129.241L530.29 129.252L530.299 129.264L533.22 126.992ZM498.63 163.73L501.139 161.012C496.534 156.76 493.951 150.296 493.951 140.957H490.251H486.551C486.551 151.67 489.554 160.388 496.12 166.449L498.63 163.73ZM490.251 140.957H493.951C493.951 131.576 496.537 125.121 501.13 120.911L498.63 118.184L496.13 115.456C489.551 121.487 486.551 130.215 486.551 140.957H490.251ZM498.63 118.184L501.139 120.902C505.821 116.581 512.814 114.149 522.692 114.149V110.449V106.749C511.659 106.749 502.611 109.474 496.12 115.465L498.63 118.184ZM522.692 110.449V114.149C532.61 114.149 539.62 116.583 544.299 120.902L546.808 118.184L549.318 115.465C542.825 109.472 533.757 106.749 522.692 106.749V110.449ZM546.808 118.184L544.308 120.911C548.901 125.121 551.487 131.576 551.487 140.957H555.187H558.887C558.887 130.215 555.887 121.487 549.309 115.456L546.808 118.184ZM555.187 140.957H551.487C551.487 150.296 548.904 156.76 544.299 161.012L546.808 163.73L549.318 166.449C555.884 160.388 558.887 151.67 558.887 140.957H555.187ZM546.808 163.73L544.299 161.012C539.62 165.331 532.61 167.765 522.692 167.765V171.465V175.165C533.757 175.165 542.825 172.442 549.318 166.449L546.808 163.73ZM522.692 171.465V167.765C512.814 167.765 505.821 165.333 501.139 161.012L498.63 163.73L496.12 166.449C502.611 172.44 511.659 175.165 522.692 175.165V171.465ZM512.219 126.992L509.281 124.743C506.316 128.617 505.189 134.258 505.189 140.903H508.889H512.589C512.589 134.801 513.681 131.168 515.157 129.241L512.219 126.992ZM508.889 140.903H505.189C505.189 147.555 506.318 153.199 509.267 157.1L512.219 154.868L515.17 152.637C513.679 150.665 512.589 146.999 512.589 140.903H508.889ZM512.219 154.868L509.267 157.1C512.384 161.222 517.143 162.972 522.692 162.972V159.272V155.572C518.717 155.572 516.493 154.386 515.17 152.637L512.219 154.868ZM522.692 159.272V162.972C528.266 162.972 533.048 161.229 536.171 157.1L533.22 154.868L530.268 152.637C528.951 154.379 526.715 155.572 522.692 155.572V159.272ZM533.22 154.868L536.154 157.122C539.153 153.218 540.303 147.563 540.303 140.903H536.603H532.903C532.903 146.991 531.798 150.646 530.286 152.614L533.22 154.868ZM536.603 140.903H540.303C540.303 134.25 539.156 128.598 536.14 124.721L533.22 126.992L530.299 129.264C531.795 131.187 532.903 134.81 532.903 140.903H536.603ZM533.22 126.992L536.158 124.743C533.029 120.656 528.25 118.942 522.692 118.942V122.642V126.342C526.731 126.342 528.97 127.527 530.282 129.241L533.22 126.992ZM522.692 122.642V118.942C517.159 118.942 512.404 120.663 509.281 124.743L512.219 126.992L515.157 129.241C516.474 127.521 518.701 126.342 522.692 126.342V122.642ZM567.687 94.3359L570.303 96.9522L567.687 94.3359ZM584.391 94.3359L581.701 96.8764L581.774 96.9533L581.851 97.0259L584.391 94.3359ZM584.391 169.478L581.775 166.861L584.391 169.478ZM567.687 169.478L564.997 172.018L565.07 172.095L565.146 172.167L567.687 169.478ZM566.774 167.114H570.474V96.6992H566.774H563.074V167.114H566.774ZM566.774 96.6992H570.474C570.474 96.6065 570.488 96.6284 570.454 96.7168C570.437 96.7591 570.414 96.8054 570.384 96.8509C570.355 96.8962 570.325 96.9301 570.303 96.9522L567.687 94.3359L565.071 91.7196C563.68 93.1102 563.074 94.883 563.074 96.6992H566.774ZM567.687 94.3359L570.303 96.9522C570.306 96.9492 570.295 96.9612 570.267 96.9797C570.239 96.9986 570.203 97.0185 570.162 97.0354C570.071 97.0725 570.02 97.0691 570.05 97.0691V93.3691V89.6691C568.161 89.6691 566.426 90.3648 565.071 91.7196L567.687 94.3359ZM570.05 93.3691V97.0691H582.082V93.3691V89.6691H570.05V93.3691ZM582.082 93.3691V97.0691C582.113 97.0691 582.046 97.0729 581.928 97.0239C581.807 96.9732 581.729 96.9061 581.701 96.8764L584.391 94.3359L587.081 91.7954C585.735 90.3702 583.973 89.6691 582.082 89.6691V93.3691ZM584.391 94.3359L581.851 97.0259C581.833 97.0091 581.804 96.9782 581.772 96.9321C581.74 96.8857 581.712 96.835 581.692 96.7842C581.648 96.6771 581.658 96.6314 581.658 96.6992H585.358H589.058C589.058 94.8169 588.388 93.021 586.932 91.646L584.391 94.3359ZM585.358 96.6992H581.658V167.114H585.358H589.058V96.6992H585.358ZM585.358 167.114H581.658C581.658 167.145 581.654 167.093 581.692 167.002C581.709 166.961 581.728 166.925 581.747 166.897C581.766 166.87 581.778 166.858 581.775 166.861L584.391 169.478L587.007 172.094C588.362 170.739 589.058 169.003 589.058 167.114H585.358ZM584.391 169.478L581.775 166.861C581.79 166.846 581.819 166.82 581.861 166.792C581.904 166.764 581.95 166.74 581.997 166.721C582.096 166.682 582.139 166.691 582.082 166.691V170.391V174.091C583.906 174.091 585.645 173.456 587.007 172.094L584.391 169.478ZM582.082 170.391V166.691H570.05V170.391V174.091H582.082V170.391ZM570.05 170.391V166.691C570.02 166.691 570.012 166.688 570.024 166.69C570.036 166.692 570.062 166.698 570.095 166.711C570.128 166.724 570.159 166.74 570.186 166.757C570.213 166.774 570.226 166.786 570.227 166.788L567.687 169.478L565.146 172.167C566.515 173.46 568.227 174.091 570.05 174.091V170.391ZM567.687 169.478L570.377 166.937C570.378 166.938 570.391 166.952 570.407 166.978C570.424 167.005 570.441 167.037 570.454 167.07C570.466 167.103 570.472 167.128 570.474 167.14C570.476 167.152 570.474 167.145 570.474 167.114H566.774H563.074C563.074 168.938 563.705 170.65 564.997 172.018L567.687 169.478Z" fill="black" mask="url(#path-28-outside-2_257_3628)"/>
<defs>
<filter id="filter0_d_257_3628" x="15.3613" y="11.3594" width="253.24" height="253.43" filterUnits="userSpaceOnUse" color-interpolation-filters="sRGB">
<feFlood flood-opacity="0" result="BackgroundImageFix"/>
<feColorMatrix in="SourceAlpha" type="matrix" values="0 0 0 0 0 0 0 0 0 0 0 0 0 0 0 0 0 0 127 0" result="hardAlpha"/>
<feOffset dx="4"/>
<feGaussianBlur stdDeviation="8"/>
<feComposite in2="hardAlpha" operator="out"/>
<feColorMatrix type="matrix" values="0 0 0 0 0.85098 0 0 0 0 0.85098 0 0 0 0 0.85098 0 0 0 1 0"/>
<feBlend mode="normal" in2="BackgroundImageFix" result="effect1_dropShadow_257_3628"/>
<feBlend mode="normal" in="SourceGraphic" in2="effect1_dropShadow_257_3628" result="shape"/>
</filter>
<linearGradient id="paint0_linear_257_3628" x1="260.656" y1="142" x2="668.156" y2="152" gradientUnits="userSpaceOnUse">
<stop stop-color="#00BF63" stop-opacity="0.8"/>
<stop offset="1" stop-color="#0053A0"/>
</linearGradient>
<linearGradient id="paint1_linear_257_3628" x1="172.416" y1="26.1918" x2="184.027" y2="64.447" gradientUnits="userSpaceOnUse">
<stop stop-color="#00BF63" stop-opacity="0.8"/>
<stop offset="1" stop-color="#0053A0"/>
</linearGradient>
<linearGradient id="paint2_linear_257_3628" x1="222.071" y1="105.511" x2="240.981" y2="167.821" gradientUnits="userSpaceOnUse">
<stop stop-color="#00BF63" stop-opacity="0.8"/>
<stop offset="1" stop-color="#0053A0"/>
</linearGradient>
<linearGradient id="paint3_linear_257_3628" x1="160.638" y1="207.144" x2="170.241" y2="238.783" gradientUnits="userSpaceOnUse">
<stop stop-color="#00BF63" stop-opacity="0.8"/>
<stop offset="1" stop-color="#0053A0"/>
</linearGradient>
<linearGradient id="paint4_linear_257_3628" x1="121.939" y1="51.3134" x2="178.25" y2="236.856" gradientUnits="userSpaceOnUse">
<stop stop-color="#00BF63" stop-opacity="0.8"/>
<stop offset="1" stop-color="#0053A0"/>
</linearGradient>
<linearGradient id="paint5_linear_257_3628" x1="126.588" y1="100.496" x2="149.395" y2="175.644" gradientUnits="userSpaceOnUse">
<stop stop-color="#00BF63" stop-opacity="0.8"/>
<stop offset="1" stop-color="#0053A0"/>
</linearGradient>
<linearGradient id="paint6_linear_257_3628" x1="50.3374" y1="60.6797" x2="61.8379" y2="98.5731" gradientUnits="userSpaceOnUse">
<stop stop-color="#00BF63" stop-opacity="0.8"/>
<stop offset="1" stop-color="#0053A0"/>
</linearGradient>
<linearGradient id="paint7_linear_257_3628" x1="49.9808" y1="157.725" x2="68.8914" y2="220.036" gradientUnits="userSpaceOnUse">
<stop stop-color="#00BF63" stop-opacity="0.8"/>
<stop offset="1" stop-color="#0053A0"/>
</linearGradient>
</defs>
</svg>
